<svg width="483" height="508" fill="none" xmlns="http://www.w3.org/2000/svg"><path fill-rule="evenodd" clip-rule="evenodd" d="M306.915 3.498c55.206 14.435 80.981 75.594 113.769 122.328 25.906 36.925 47.136 75.333 55.952 119.583 8.863 44.489 8.208 89.467-5.701 132.647-15.535 48.229-29.92 109.528-77.704 126.277-48.532 17.011-93.816-31.834-142.219-49.19-35.035-12.562-68.817-21.395-101.947-38.359-47.627-24.388-109.116-34.382-133.343-82.122-25.705-50.653-16.245-114.444 7.366-166.119C46.81 116.625 94.855 82.208 144.176 53.528c50.3-29.25 106.463-64.744 162.739-50.03z" fill="url(#paint0_linear)"/><defs><linearGradient id="paint0_linear" x1="218.5" y1="31.5" x2="105.5" y2="365.5" gradientUnits="userSpaceOnUse"><stop stop-color="#FFC700"/><stop offset="1" stop-color="#FB8800"/></linearGradient></defs></svg>