<svg width="184" height="28" fill="none" xmlns="http://www.w3.org/2000/svg"><path d="M113.121 13.094h1.793c1.676 0 2.93-.328 3.762-.985.832-.668 1.248-1.634 1.248-2.9 0-1.277-.352-2.22-1.055-2.83-.691-.61-1.781-.914-3.269-.914h-2.479v7.629zm12.305-4.078c0 2.765-.867 4.88-2.602 6.345-1.722 1.465-4.178 2.198-7.365 2.198h-2.338v9.14h-5.449V1h8.209c3.117 0 5.484.674 7.101 2.021 1.629 1.336 2.444 3.334 2.444 5.995zM142.336 26.7l-1.037-2.673h-.141c-.902 1.137-1.834 1.928-2.795 2.373-.949.434-2.191.65-3.726.65-1.887 0-3.375-.538-4.465-1.616-1.078-1.079-1.617-2.614-1.617-4.606 0-2.086.726-3.621 2.179-4.605 1.465-.996 3.668-1.547 6.61-1.653l3.41-.105v-.861c0-1.993-1.02-2.989-3.059-2.989-1.57 0-3.416.475-5.537 1.424l-1.775-3.621c2.262-1.184 4.769-1.775 7.523-1.775 2.637 0 4.658.574 6.065 1.722 1.406 1.149 2.109 2.895 2.109 5.239v13.095h-3.744zm-1.582-9.106l-2.074.07c-1.559.047-2.719.328-3.481.844-.761.515-1.142 1.3-1.142 2.355 0 1.512.867 2.268 2.601 2.268 1.242 0 2.233-.358 2.971-1.072.75-.715 1.125-1.665 1.125-2.848v-1.617zM165.328 20.863c0 2.016-.703 3.551-2.109 4.606-1.395 1.054-3.487 1.582-6.276 1.582-1.429 0-2.648-.1-3.656-.299a13.46 13.46 0 01-2.83-.844v-4.43c.996.47 2.115.862 3.357 1.178 1.254.317 2.356.475 3.305.475 1.945 0 2.918-.563 2.918-1.688 0-.422-.129-.761-.387-1.02-.257-.269-.703-.567-1.336-.896-.632-.34-1.476-.732-2.531-1.177-1.512-.633-2.625-1.22-3.34-1.758-.703-.54-1.218-1.154-1.547-1.846-.316-.703-.474-1.564-.474-2.584 0-1.746.674-3.094 2.021-4.043 1.36-.96 3.282-1.441 5.766-1.441 2.367 0 4.67.515 6.908 1.547l-1.617 3.867a29.64 29.64 0 00-2.76-1.037 8.662 8.662 0 00-2.619-.405c-1.582 0-2.373.428-2.373 1.284 0 .48.252.896.756 1.248.516.351 1.635.873 3.357 1.564 1.535.621 2.66 1.201 3.375 1.74.715.54 1.243 1.16 1.582 1.864.34.703.51 1.54.51 2.513zM183.223 20.863c0 2.016-.703 3.551-2.11 4.606-1.394 1.054-3.486 1.582-6.275 1.582-1.43 0-2.649-.1-3.656-.299a13.443 13.443 0 01-2.83-.844v-4.43c.996.47 2.115.862 3.357 1.178 1.254.317 2.355.475 3.305.475 1.945 0 2.918-.563 2.918-1.688 0-.422-.129-.761-.387-1.02-.258-.269-.703-.567-1.336-.896-.633-.34-1.477-.732-2.531-1.177-1.512-.633-2.625-1.22-3.34-1.758-.703-.54-1.219-1.154-1.547-1.846-.316-.703-.475-1.564-.475-2.584 0-1.746.674-3.094 2.022-4.043 1.359-.96 3.281-1.441 5.766-1.441 2.367 0 4.669.515 6.908 1.547l-1.617 3.867a29.853 29.853 0 00-2.76-1.037 8.672 8.672 0 00-2.619-.405c-1.582 0-2.373.428-2.373 1.284 0 .48.252.896.755 1.248.516.351 1.635.873 3.358 1.564 1.535.621 2.66 1.201 3.375 1.74.715.54 1.242 1.16 1.582 1.864.34.703.51 1.54.51 2.513z" fill="#353638"/><path d="M5.45 13.94h1.792c1.676 0 2.93-.329 3.762-.985.832-.668 1.248-1.635 1.248-2.9 0-1.278-.352-2.221-1.055-2.83-.691-.61-1.781-.914-3.27-.914H5.45v7.629zM17.753 9.86c0 2.766-.867 4.881-2.602 6.346-1.722 1.465-4.177 2.197-7.365 2.197H5.45v9.14H0V1.847h8.209c3.117 0 5.484.674 7.101 2.021 1.63 1.336 2.444 3.334 2.444 5.994zM33.152 7.523c.727 0 1.33.053 1.81.159l-.403 5.027c-.434-.117-.961-.176-1.582-.176-1.711 0-3.047.44-4.008 1.319-.95.878-1.424 2.109-1.424 3.691v10.002h-5.361V7.893h4.06l.791 3.304h.264a7.341 7.341 0 012.46-2.654 6.094 6.094 0 013.393-1.02zM42.803 17.684c0 1.945.316 3.416.949 4.412.645.996 1.688 1.494 3.129 1.494 1.43 0 2.455-.492 3.076-1.477.633-.996.95-2.472.95-4.43 0-1.945-.317-3.404-.95-4.376-.633-.973-1.67-1.46-3.111-1.46-1.43 0-2.461.487-3.094 1.46-.633.96-.95 2.42-.95 4.377zm13.588 0c0 3.199-.844 5.7-2.532 7.505-1.687 1.805-4.037 2.707-7.049 2.707-1.886 0-3.55-.41-4.992-1.23-1.441-.832-2.548-2.021-3.322-3.568-.773-1.547-1.16-3.352-1.16-5.414 0-3.211.838-5.707 2.514-7.489 1.675-1.78 4.03-2.672 7.066-2.672 1.887 0 3.55.41 4.992 1.23 1.442.821 2.549 1.999 3.322 3.534.774 1.535 1.16 3.334 1.16 5.397zM71.684 11.918h-4.641v15.627h-5.361V11.918h-2.954V9.334l2.954-1.441V6.45c0-2.238.55-3.873 1.652-4.904C64.436.516 66.199 0 68.625 0c1.852 0 3.498.275 4.94.826l-1.372 3.938c-1.078-.34-2.074-.51-2.988-.51-.762 0-1.312.228-1.652.685-.34.446-.51 1.02-.51 1.723v1.23h4.64v4.026zm2.847-9.105c0-1.747.973-2.62 2.918-2.62 1.945 0 2.918.873 2.918 2.62 0 .832-.246 1.482-.738 1.95-.48.458-1.207.686-2.18.686-1.945 0-2.918-.879-2.918-2.636zm5.59 24.732H74.76V7.893h5.361v19.652zM94.025 23.625c.938 0 2.063-.205 3.375-.615V27c-1.336.598-2.976.896-4.922.896-2.144 0-3.709-.539-4.693-1.617-.972-1.09-1.459-2.718-1.459-4.886v-9.475H83.76V9.65l2.953-1.793L88.26 3.71h3.427v4.184h5.502v4.025h-5.501v9.475c0 .761.21 1.324.632 1.687.434.363 1.002.545 1.705.545z" fill="#FB9600"/></svg>