<svg width="207" height="399" fill="none" xmlns="http://www.w3.org/2000/svg"><path fill-rule="evenodd" clip-rule="evenodd" d="M241.29 374.968c-40.835 13.185-83.716 32.172-124.264 18.135-42.019-14.546-71.324-53.011-91.273-92.748C6.406 261.816-9.38 215.016 7.755 175.442c16.467-38.031 70.62-38.927 101.098-67.012 26.62-24.53 31.451-68.058 63.579-84.736 36.975-19.194 87.08-34.9 121.399-11.286 34.983 24.071 21.431 79.02 35.346 119.138 10.576 30.492 34.689 54.99 36.231 87.227 1.736 36.319-4.519 74.426-27.141 102.894-23.523 29.603-60.994 41.682-96.977 53.301z" fill="url(#paint0_linear)"/><defs><linearGradient id="paint0_linear" x1="249.223" y1="349.982" x2="253.036" y2="82.958" gradientUnits="userSpaceOnUse"><stop stop-color="#FFC700"/><stop offset="1" stop-color="#FB8800"/></linearGradient></defs></svg>